<?xml version="1.0" encoding="UTF-8"?>
<svg xmlns="http://www.w3.org/2000/svg" width="1024" height="500" viewBox="0 0 1024 500">
  <defs>
    <linearGradient id="bg" x1="0%" y1="0%" x2="100%" y2="100%">
      <stop offset="0%" stop-color="#1E2A78"/>
      <stop offset="100%" stop-color="#0F1542"/>
    </linearGradient>
  </defs>
  <rect width="1024" height="500" fill="url(#bg)"/>

  <!-- Icon block on the left, 280px square at x=120 y=110 -->
  <g transform="translate(120,110) scale(2.59)">
    <rect width="108" height="108" rx="22" fill="#1E2A78" stroke="#FFFFFF" stroke-opacity="0.15" stroke-width="0.8"/>
    <g fill="#FFFFFF">
      <path d="M54,30 C49,30 45,34 45,39 L45,57 C45,62 49,66 54,66 C59,66 63,62 63,57 L63,39 C63,34 59,30 54,30 Z"/>
      <path d="M40,55 L40,57 C40,65 46,71 54,71 C62,71 68,65 68,57 L68,55 L72,55 L72,57 C72,66 65,73 56,74 L56,80 L52,80 L52,74 C43,73 36,66 36,57 L36,55 Z"/>
    </g>
  </g>

  <!-- Text block on the right -->
  <g font-family="DejaVu Sans, Liberation Sans, sans-serif" fill="#FFFFFF">
    <text x="460" y="220" font-size="64" font-weight="700">WhisperShare</text>
    <text x="460" y="278" font-size="30" font-weight="400" fill-opacity="0.85">On-device voice transcription</text>
    <text x="460" y="328" font-size="22" font-weight="400" fill-opacity="0.65">Share a voice note — get the text. No cloud.</text>
  </g>
</svg>
